<svg width="390" height="708" viewBox="0 0 390 708" fill="none" xmlns="http://www.w3.org/2000/svg">
<g filter="url(#filter0_f_121_136)">
<path fill-rule="evenodd" clip-rule="evenodd" d="M188.968 463.504C174.403 456.199 140.162 499.088 131.385 487.076C122.614 475.073 42.3273 433.368 42.9628 419.226C43.5385 406.413 132.397 413.889 135.723 401.308C139.957 385.291 112.947 354.192 130.965 346.937C150.15 339.212 193.398 382.22 214.525 382.993C231.76 383.623 245.376 335.242 262.41 337.266C280.899 339.464 290.784 270.944 303.251 282.186C316.724 294.336 327.219 204.366 323.218 220.733C318.997 238.003 332.865 263.472 322.65 279.072C312.965 293.864 358.14 230.704 345.002 243.62C332.013 256.388 395.258 422.364 375.404 420.504C356.041 418.691 205.465 471.778 188.968 463.504Z" fill="url(#paint0_linear_121_136)"/>
<path fill-rule="evenodd" clip-rule="evenodd" d="M188.968 463.504C174.403 456.199 140.162 499.088 131.385 487.076C122.614 475.073 42.3273 433.368 42.9628 419.226C43.5385 406.413 132.397 413.889 135.723 401.308C139.957 385.291 112.947 354.192 130.965 346.937C150.15 339.212 193.398 382.22 214.525 382.993C231.76 383.623 245.376 335.242 262.41 337.266C280.899 339.464 290.784 270.944 303.251 282.186C316.724 294.336 327.219 204.366 323.218 220.733C318.997 238.003 332.865 263.472 322.65 279.072C312.965 293.864 358.14 230.704 345.002 243.62C332.013 256.388 395.258 422.364 375.404 420.504C356.041 418.691 205.465 471.778 188.968 463.504Z" fill="url(#paint1_linear_121_136)"/>
<path fill-rule="evenodd" clip-rule="evenodd" d="M188.968 463.504C174.403 456.199 140.162 499.088 131.385 487.076C122.614 475.073 42.3273 433.368 42.9628 419.226C43.5385 406.413 132.397 413.889 135.723 401.308C139.957 385.291 112.947 354.192 130.965 346.937C150.15 339.212 193.398 382.22 214.525 382.993C231.76 383.623 245.376 335.242 262.41 337.266C280.899 339.464 290.784 270.944 303.251 282.186C316.724 294.336 327.219 204.366 323.218 220.733C318.997 238.003 332.865 263.472 322.65 279.072C312.965 293.864 358.14 230.704 345.002 243.62C332.013 256.388 395.258 422.364 375.404 420.504C356.041 418.691 205.465 471.778 188.968 463.504Z" fill="url(#paint2_linear_121_136)"/>
</g>
<defs>
<filter id="filter0_f_121_136" x="-175.041" y="0.736221" width="772.335" height="706.476" filterUnits="userSpaceOnUse" color-interpolation-filters="sRGB">
<feFlood flood-opacity="0" result="BackgroundImageFix"/>
<feBlend mode="normal" in="SourceGraphic" in2="BackgroundImageFix" result="shape"/>
<feGaussianBlur stdDeviation="109" result="effect1_foregroundBlur_121_136"/>
</filter>
<linearGradient id="paint0_linear_121_136" x1="153.931" y1="463.297" x2="377.777" y2="241.121" gradientUnits="userSpaceOnUse">
<stop offset="0.00485223" stop-color="#020112"/>
<stop offset="0.453125" stop-color="#4E0DDA"/>
</linearGradient>
<linearGradient id="paint1_linear_121_136" x1="153.931" y1="463.297" x2="377.777" y2="241.121" gradientUnits="userSpaceOnUse">
<stop offset="0.00485223" stop-color="#020112"/>
<stop offset="0.453125" stop-color="#4E0DDA"/>
</linearGradient>
<linearGradient id="paint2_linear_121_136" x1="153.931" y1="463.297" x2="377.777" y2="241.121" gradientUnits="userSpaceOnUse">
<stop offset="0.00485223" stop-color="#020112"/>
<stop offset="0.453125" stop-color="#4E0DDA"/>
</linearGradient>
</defs>
</svg>
