<svg width="1293" height="1072" viewBox="0 0 1293 1072" fill="none" xmlns="http://www.w3.org/2000/svg">
<g filter="url(#filter0_f_115_8)">
<path fill-rule="evenodd" clip-rule="evenodd" d="M607.559 -32.2365C652.174 9.07234 797.314 -137.626 819.102 -81.8415C840.874 -26.0976 1085.85 207.448 1074.21 264.348C1063.67 315.9 766.615 214.44 746.878 262.852C721.751 324.482 792.727 472.339 726.615 487.371C656.222 503.376 538.028 294.18 466.726 274.137C408.561 257.787 329.854 443.285 273.304 421.435C211.926 397.719 132.403 667.955 97.5586 612.342C59.9014 552.239 -36.0677 909.062 -11.5004 845.822C14.4211 779.098 -15.6519 664.611 29.5263 609.457C72.3628 557.162 -123.531 777.399 -70.2142 735.485C-17.5033 694.047 -121.265 -30.3211 -55.0193 -6.88415C9.58496 15.9721 557.023 -79.0275 607.559 -32.2365Z" fill="url(#paint0_linear_115_8)"/>
<path fill-rule="evenodd" clip-rule="evenodd" d="M607.559 -32.2365C652.174 9.07234 797.314 -137.626 819.102 -81.8415C840.874 -26.0976 1085.85 207.448 1074.21 264.348C1063.67 315.9 766.615 214.44 746.878 262.852C721.751 324.482 792.727 472.339 726.615 487.371C656.222 503.376 538.028 294.18 466.726 274.137C408.561 257.787 329.854 443.285 273.304 421.435C211.926 397.719 132.403 667.955 97.5586 612.342C59.9014 552.239 -36.0677 909.062 -11.5004 845.822C14.4211 779.098 -15.6519 664.611 29.5263 609.457C72.3628 557.162 -123.531 777.399 -70.2142 735.485C-17.5033 694.047 -121.265 -30.3211 -55.0193 -6.88415C9.58496 15.9721 557.023 -79.0275 607.559 -32.2365Z" fill="url(#paint1_linear_115_8)"/>
<path fill-rule="evenodd" clip-rule="evenodd" d="M607.559 -32.2365C652.174 9.07234 797.314 -137.626 819.102 -81.8415C840.874 -26.0976 1085.85 207.448 1074.21 264.348C1063.67 315.9 766.615 214.44 746.878 262.852C721.751 324.482 792.727 472.339 726.615 487.371C656.222 503.376 538.028 294.18 466.726 274.137C408.561 257.787 329.854 443.285 273.304 421.435C211.926 397.719 132.403 667.955 97.5586 612.342C59.9014 552.239 -36.0677 909.062 -11.5004 845.822C14.4211 779.098 -15.6519 664.611 29.5263 609.457C72.3628 557.162 -123.531 777.399 -70.2142 735.485C-17.5033 694.047 -121.265 -30.3211 -55.0193 -6.88415C9.58496 15.9721 557.023 -79.0275 607.559 -32.2365Z" fill="url(#paint2_linear_115_8)"/>
</g>
<defs>
<filter id="filter0_f_115_8" x="-297.487" y="-312.672" width="1590.1" height="1384.04" filterUnits="userSpaceOnUse" color-interpolation-filters="sRGB">
<feFlood flood-opacity="0" result="BackgroundImageFix"/>
<feBlend mode="normal" in="SourceGraphic" in2="BackgroundImageFix" result="shape"/>
<feGaussianBlur stdDeviation="109" result="effect1_foregroundBlur_115_8"/>
</filter>
<linearGradient id="paint0_linear_115_8" x1="726.524" y1="-3.35601" x2="-275.097" y2="554.618" gradientUnits="userSpaceOnUse">
<stop offset="0.00485223" stop-color="#020112"/>
<stop offset="0.453125" stop-color="#4E0DDA"/>
</linearGradient>
<linearGradient id="paint1_linear_115_8" x1="726.524" y1="-3.35601" x2="-275.097" y2="554.618" gradientUnits="userSpaceOnUse">
<stop offset="0.00485223" stop-color="#020112"/>
<stop offset="0.453125" stop-color="#4E0DDA"/>
</linearGradient>
<linearGradient id="paint2_linear_115_8" x1="726.524" y1="-3.35601" x2="-275.097" y2="554.618" gradientUnits="userSpaceOnUse">
<stop offset="0.00485223" stop-color="#020112"/>
<stop offset="0.453125" stop-color="#4E0DDA"/>
</linearGradient>
</defs>
</svg>
