<svg width="1430" height="1385" viewBox="0 0 1430 1385" fill="none" xmlns="http://www.w3.org/2000/svg">
<g filter="url(#filter0_f_115_9)">
<path fill-rule="evenodd" clip-rule="evenodd" d="M1461.46 281.236C1506.08 322.544 1651.22 175.846 1673 231.631C1694.78 287.375 1939.75 520.919 1928.11 577.819C1917.57 629.371 1620.52 527.913 1600.78 576.324C1575.65 637.955 1646.63 785.811 1580.52 800.843C1510.12 816.848 1391.93 607.652 1320.63 587.609C1262.46 571.259 1183.76 756.757 1127.21 734.907C1065.83 711.192 986.305 981.427 951.461 925.814C913.804 865.711 817.835 1222.53 842.402 1159.29C868.324 1092.57 838.251 978.083 883.429 922.929C926.265 870.634 168.183 995.414 221.5 953.5C274.211 912.062 732.638 283.151 798.883 306.588C863.488 329.444 1410.93 234.445 1461.46 281.236Z" fill="url(#paint0_linear_115_9)" fill-opacity="0.64"/>
<path fill-rule="evenodd" clip-rule="evenodd" d="M1461.46 281.236C1506.08 322.544 1651.22 175.846 1673 231.631C1694.78 287.375 1939.75 520.919 1928.11 577.819C1917.57 629.371 1620.52 527.913 1600.78 576.324C1575.65 637.955 1646.63 785.811 1580.52 800.843C1510.12 816.848 1391.93 607.652 1320.63 587.609C1262.46 571.259 1183.76 756.757 1127.21 734.907C1065.83 711.192 986.305 981.427 951.461 925.814C913.804 865.711 817.835 1222.53 842.402 1159.29C868.324 1092.57 838.251 978.083 883.429 922.929C926.265 870.634 168.183 995.414 221.5 953.5C274.211 912.062 732.638 283.151 798.883 306.588C863.488 329.444 1410.93 234.445 1461.46 281.236Z" fill="url(#paint1_linear_115_9)" fill-opacity="0.64"/>
<path fill-rule="evenodd" clip-rule="evenodd" d="M1461.46 281.236C1506.08 322.544 1651.22 175.846 1673 231.631C1694.78 287.375 1939.75 520.919 1928.11 577.819C1917.57 629.371 1620.52 527.913 1600.78 576.324C1575.65 637.955 1646.63 785.811 1580.52 800.843C1510.12 816.848 1391.93 607.652 1320.63 587.609C1262.46 571.259 1183.76 756.757 1127.21 734.907C1065.83 711.192 986.305 981.427 951.461 925.814C913.804 865.711 817.835 1222.53 842.402 1159.29C868.324 1092.57 838.251 978.083 883.429 922.929C926.265 870.634 168.183 995.414 221.5 953.5C274.211 912.062 732.638 283.151 798.883 306.588C863.488 329.444 1410.93 234.445 1461.46 281.236Z" fill="url(#paint2_linear_115_9)" fill-opacity="0.64"/>
</g>
<defs>
<filter id="filter0_f_115_9" x="0.812256" y="0.800049" width="2145.7" height="1384.04" filterUnits="userSpaceOnUse" color-interpolation-filters="sRGB">
<feFlood flood-opacity="0" result="BackgroundImageFix"/>
<feBlend mode="normal" in="SourceGraphic" in2="BackgroundImageFix" result="shape"/>
<feGaussianBlur stdDeviation="109" result="effect1_foregroundBlur_115_9"/>
</filter>
<linearGradient id="paint0_linear_115_9" x1="1580.43" y1="310.116" x2="432.121" y2="1700.03" gradientUnits="userSpaceOnUse">
<stop offset="0.00485223" stop-color="#020112"/>
<stop offset="0.603296" stop-color="#4E0DDA"/>
</linearGradient>
<linearGradient id="paint1_linear_115_9" x1="1580.43" y1="310.116" x2="432.121" y2="1700.03" gradientUnits="userSpaceOnUse">
<stop offset="0.00485223" stop-color="#020112"/>
<stop offset="0.603296" stop-color="#4E0DDA"/>
</linearGradient>
<linearGradient id="paint2_linear_115_9" x1="1580.43" y1="310.116" x2="432.121" y2="1700.03" gradientUnits="userSpaceOnUse">
<stop offset="0.00485223" stop-color="#020112"/>
<stop offset="0.603296" stop-color="#4E0DDA"/>
</linearGradient>
</defs>
</svg>
